<svg xmlns="http://www.w3.org/2000/svg" viewBox="0 0 342 80.05"><defs><style>.cls-1{fill:#231815}.cls-2{fill:#f29600}</style></defs><title>footer_logo</title><g id="レイヤー_2" data-name="レイヤー 2"><g id="レイヤー_1-2" data-name="レイヤー 1"><path d="M63.81 71.6a2.35 2.35 0 0 1 .84-1.68L67.2 68a2.36 2.36 0 0 0 .8-1.67v-.43a1.06 1.06 0 0 0-1-1.05h-8.9a1 1 0 0 0-1.05 1.05v.43a1 1 0 0 0 1.05 1h5.51c.58 0 .67.28.21.63l-1.7 1.27a2 2 0 0 0-.84 1.26v2.54c0 .35-.48.64-1.05.64H53a1 1 0 0 0-1 1v.43a1.06 1.06 0 0 0 1 1.06h7.2a1.06 1.06 0 0 1 1.05 1V79a1.06 1.06 0 0 0 1 1.06h.45a1.06 1.06 0 0 0 1-1.06v-1.7a1 1 0 0 1 1-1H72a1.06 1.06 0 0 0 1.06-1.06v-.43a1 1 0 0 0-1.06-1h-7.14a1.06 1.06 0 0 1-1-1.06z"/><path d="M70.26 60.21a1.75 1.75 0 0 1-1-1.48v-.43a1 1 0 0 0-1-1h-.44a1 1 0 0 0-1 1v.43a1.07 1.07 0 0 1-1 1.06h-.86a1.06 1.06 0 0 1-1-1.06v-.43a1.05 1.05 0 0 0-1-1h-.45a1 1 0 0 0-1 1v.43a1.07 1.07 0 0 1-1.05 1.06h-.87a1.07 1.07 0 0 1-1-1.06v-.43a1 1 0 0 0-1.05-1h-.43a1 1 0 0 0-1 1v.43a1.75 1.75 0 0 1-1 1.48l-2.41 2.42a5.68 5.68 0 0 0-.42 2V68a1.06 1.06 0 0 0 1 1.06h.44a1 1 0 0 0 1-1.06v-3.37A4.92 4.92 0 0 1 54.8 63c.15-.35 1.45-.63 2-.63h11.46a5 5 0 0 1 1.68.28c.34.15.63 1.45.63 2V68a1.06 1.06 0 0 0 1 1.06H72A1.06 1.06 0 0 0 73.1 68v-3.37a5.7 5.7 0 0 0-.44-2zM26 61.26v13.93a5.78 5.78 0 0 0 .42 2l2.41 2.4a5.82 5.82 0 0 0 2 .45h11.43a5.82 5.82 0 0 0 2-.45l2.41-2.4a5.79 5.79 0 0 0 .43-2V60.83a1 1 0 0 0-1.06-1H27a1 1 0 0 0-1 1zm2.81 15.61a4.88 4.88 0 0 1-.29-1.68v-3a1.06 1.06 0 0 1 1.05-1h4.66a1.06 1.06 0 0 1 1.06 1v4.23a1.07 1.07 0 0 1-1.06 1.05h-3.39c-.58.04-1.84-.25-2.03-.6zm15.13.35a4.88 4.88 0 0 1-1.68.29h-3.39a1.07 1.07 0 0 1-1.06-1.05v-4.23a1.06 1.06 0 0 1 1.06-1h4.65a1 1 0 0 1 1 1v3c.05.54-.23 1.84-.58 1.99zm.63-9.62a1.06 1.06 0 0 1-1 1.05h-4.7a1.07 1.07 0 0 1-1.06-1.05v-4.24a1.06 1.06 0 0 1 1.06-1h4.65a1 1 0 0 1 1 1zm-10.34-5.28a1.06 1.06 0 0 1 1.06 1v4.28a1.07 1.07 0 0 1-1.06 1.05h-4.66a1.06 1.06 0 0 1-1.05-1.05v-4.24a1.05 1.05 0 0 1 1.05-1zM78 61.26v13.93a5.79 5.79 0 0 0 .43 2l2.41 2.4a5.66 5.66 0 0 0 2 .45h11.41a5.76 5.76 0 0 0 2-.45l2.41-2.4a5.79 5.79 0 0 0 .43-2V60.83a1 1 0 0 0-1-1H79a1 1 0 0 0-1 1zm7.16 9.05c-.59 0-1-.23-1-.51s.46-.51 1-.51h6.79c.57 0 1 .23 1 .51s-.48.51-1 .51zm4.66 2.53c0-.58.21-.63.46-.11l1.92 3.84a.6.6 0 0 1-.59.94h-.74a1.06 1.06 0 0 1-1-1.05zm-2.54 3.62a1.05 1.05 0 0 1-1 1.05h-.75a.6.6 0 0 1-.58-.94l1.92-3.84c.25-.52.45-.47.45.11zm-1-14.14c.57 0 1 .28 1 .63s-.47.63-1 .63h-3.67c-.59 0-1.06.34-1.06.74s.47.75 1.06.75h3.61c.57 0 1 .13 1 .31s-.47.32-1 .32h-3.61c-.59 0-1.06.33-1.06.73s.47.75 1.06.75h11.85c.58 0 1.05-.34 1.05-.75s-.47-.73-1.05-.73h-3.61c-.58 0-1-.16-1-.32s.47-.31 1-.31h3.61c.58 0 1.05-.33 1.05-.75s-.47-.74-1.05-.74h-3.61c-.58 0-1-.28-1-.63s.47-.63 1-.63h4.66a1 1 0 0 1 1 1v11.87a5.15 5.15 0 0 1-.28 1.68c-.15.35-1 .64-1 .64a5.64 5.64 0 0 1-.53-.94l-.34-.67a.87.87 0 0 1 .34-1.25 1.58 1.58 0 0 0 .8-1.38v-.43a.67.67 0 0 0-1-.66l-.7.28c-.54.21-1.09.15-1.24-.14s.22-.52.79-.52h1.08c.58 0 1.05-.1 1.05-.21v-3c0-.41-.47-.74-1.05-.74H82.61c-.59 0-1.06.33-1.06.74v3c0 .11.47.21 1.06.21h1.08a.59.59 0 0 1 .58.93l-1.91 3.84a6.59 6.59 0 0 1-.53.94 6.93 6.93 0 0 1-.69-.29c-.35-.15-.63-1.45-.63-2V63.36a1 1 0 0 1 1-1zM3.58 69.92H1.06A1 1 0 0 0 0 71v4.23a5.79 5.79 0 0 0 .43 2l2.41 2.4a5.76 5.76 0 0 0 2 .45h11.43a5.82 5.82 0 0 0 2-.45l2.41-2.4a6 6 0 0 0 .43-2V71a1 1 0 0 0-1.05-1H3.58zm15 5.27a4.88 4.88 0 0 1-.29 1.68c-.16.35-1.45.64-2 .64H4.85a4.88 4.88 0 0 1-1.68-.29c-.35-.15-.63-1.45-.63-2V73.5a1 1 0 0 1 1-1h14a1.06 1.06 0 0 1 1.05 1zM11.83 58.3a1.06 1.06 0 0 0-1.06-1h-.43a1 1 0 0 0-1 1v.43a1.07 1.07 0 0 1-1.06 1.06H1.06a1 1 0 0 0-1.06 1v.43a1.05 1.05 0 0 0 1.06 1.06h7.18a1.06 1.06 0 0 1 1.06 1v1.71a1.07 1.07 0 0 1-1.06 1.05H1.06a1 1 0 0 0-1.06 1v.43a1.06 1.06 0 0 0 1.06 1.05h19a1.06 1.06 0 0 0 1.05-1.05v-.43a1 1 0 0 0-1.05-1h-7.2a1.05 1.05 0 0 1-1-1.05v-1.63a1 1 0 0 1 1-1h7.2a1.06 1.06 0 0 0 1.05-1.06v-.43a1 1 0 0 0-1.05-1h-7.2a1.06 1.06 0 0 1-1-1.06zM306.71 71.6a2.4 2.4 0 0 1 .84-1.68L310.1 68a2.38 2.38 0 0 0 .84-1.67v-.43a1.06 1.06 0 0 0-1.05-1.05H301a1.06 1.06 0 0 0-1.06 1.05v.44a1.06 1.06 0 0 0 1.06 1h5.51c.57 0 .66.28.21.63L305 69.28a2.07 2.07 0 0 0-.84 1.27v2.53c0 .35-.47.64-1.05.64h-7.19a1 1 0 0 0-1.05 1v.43a1.06 1.06 0 0 0 1.05 1.06h7.19a1 1 0 0 1 1.05 1V79a1.07 1.07 0 0 0 1.06 1.06h.43a1.06 1.06 0 0 0 1-1.06v-1.7a1 1 0 0 1 1.05-1h7.3a1.06 1.06 0 0 0 1-1.11v-.43a1 1 0 0 0-1.05-1h-7.19a1.06 1.06 0 0 1-1.05-1.06z"/><path d="M313.15 60.21a1.77 1.77 0 0 1-.94-1.48v-.43a1.06 1.06 0 0 0-1.06-1h-.42a1.06 1.06 0 0 0-1.06 1v.43a1.06 1.06 0 0 1-1.05 1.06h-.86a1.06 1.06 0 0 1-1.05-1.06v-.43a1 1 0 0 0-1-1h-.43a1.06 1.06 0 0 0-1.06 1v.43a1.06 1.06 0 0 1-1.05 1.06h-.85a1.05 1.05 0 0 1-1-1.06v-.43a1.06 1.06 0 0 0-1.05-1h-.44a1 1 0 0 0-1 1v.43a1.76 1.76 0 0 1-1 1.48l-2.41 2.42a6 6 0 0 0-.43 2V68a1.06 1.06 0 0 0 1.05 1.06h.43a1.06 1.06 0 0 0 .94-1.06v-3.37a5.23 5.23 0 0 1 .29-1.63c.15-.35 1.46-.63 2-.63h11.42a5 5 0 0 1 1.69.28c.35.15.63 1.46.63 2V68a1.06 1.06 0 0 0 1 1.06h.56a1.06 1.06 0 0 0 1-1.06v-3.37a6 6 0 0 0-.42-2zM187.91 60.94a1 1 0 0 0-1-1h-6.41a1 1 0 0 0-1.05 1v.44a1 1 0 0 0 1.05 1h6.41a1 1 0 0 0 1-1zM187.91 65.58a1 1 0 0 0-1-1h-6.41a1 1 0 0 0-1.05 1V66a1 1 0 0 0 1.05 1h6.41a1 1 0 0 0 1-1zM161.2 58.3a1.06 1.06 0 0 0-1.06-1h-.43a1.06 1.06 0 0 0-1.05 1v16.89a6 6 0 0 0 .43 2l2.41 2.41a5.75 5.75 0 0 0 2 .44h10a1.07 1.07 0 0 0 1.03-1.04v-.43a1.06 1.06 0 0 0-1.05-1h-10a5.26 5.26 0 0 1-1.69-.28c-.34-.16-.62-1.46-.62-2v-9.71a1 1 0 0 1 1.05-1h11.23a1.06 1.06 0 0 0 1.05-1.06V63a1.06 1.06 0 0 0-1.05-1h-11.2a1 1 0 0 1-1.05-1.05zM172 59.89a1 1 0 0 0 1.05 1h.43a1.06 1.06 0 0 0 1.05-1V58.3a1.06 1.06 0 0 0-1.05-1h-.43a1 1 0 0 0-1.05 1z"/><path d="M171 58.3a1.05 1.05 0 0 0-1.06-1h-.43a1 1 0 0 0-1.05 1v1.59a1 1 0 0 0 1.05 1h.43a1.05 1.05 0 0 0 1.06-1z"/><rect x="193.79" y="57.25" width="2.52" height="3.69" rx="1.04"/><path d="M192.74 58.3a1 1 0 0 0-1.05-1h-.43a1 1 0 0 0-1 1v1.59a1 1 0 0 0 1 1h.43a1 1 0 0 0 1.05-1zM269.32 62.72a5.91 5.91 0 0 0-.44 2V79a1.07 1.07 0 0 0 1.05 1.06h.44a1.06 1.06 0 0 0 1.05-1.06v-7.53a1 1 0 0 1 1.05-1h1.08a6 6 0 0 0 2-.43l2.4-2.4a5.28 5.28 0 0 0 .44-1.28v-5.42a1.06 1.06 0 0 0-1.06-1h-3.61a5.89 5.89 0 0 0-2 .43zm6.54 3.59a3.35 3.35 0 0 1-.28 1c-.15.35-1.45.63-2 .63h-1.08a.95.95 0 1 1 0-1.88h2.34c.55-.06 1.02.09 1.02.25zm-1.05-3.89a1.06 1.06 0 0 1 0 2.11h-2.34c-.58 0-1.05-.2-1.05-.43a3.51 3.51 0 0 1 .28-1c.16-.34 1.46-.63 2-.63zM287.17 60.32a5.79 5.79 0 0 0-2-.43h-3.61a1.06 1.06 0 0 0-1.06 1v5.37a5.59 5.59 0 0 0 .43 1.28l2.42 2.4a6 6 0 0 0 2 .43h1.07a1 1 0 0 1 1.05 1V79a1.07 1.07 0 0 0 1 1.06h.53a1.06 1.06 0 0 0 1-1.06V64.74a6.14 6.14 0 0 0-.43-2zm-1.82 7.57a5.26 5.26 0 0 1-1.69-.28c-.35-.15-.63-1.12-.63-1.3s.47-.3 1.05-.3h2.34a.95.95 0 1 1 0 1.88zm2.12-3.79c0 .23-.46.43-1.05.43h-2.34a1.06 1.06 0 0 1 0-2.11h1.08a5.2 5.2 0 0 1 1.68.28c.35.16.63 1.18.63 1.4zM209.37 58.3a1.06 1.06 0 0 0-1.06-1h-.43a1 1 0 0 0-1 1v.54a1.05 1.05 0 0 1-1 1h-4.68a1 1 0 0 0-1 1v.44a1 1 0 0 0 1 1h11.23c.58 0 1 .15 1 .33a5.18 5.18 0 0 1-1.09 1.39L201 74.49a1 1 0 0 0 0 1.45l.31.3a1.1 1.1 0 0 0 1.51 0l3.31-3c.42-.39.77-.23.77.34V79a1.06 1.06 0 0 0 1 1.06h.43a1.07 1.07 0 0 0 1.04-1.06v-5.43c0-.57.34-.73.77-.34l3.31 3a1.11 1.11 0 0 0 1.52 0l.3-.3a1 1 0 0 0 0-1.45l-4.5-4.14a1 1 0 0 1 0-1.42l3.39-3.11a9.45 9.45 0 0 0 1.33-1.57 9.14 9.14 0 0 0 .55-2.87v-.44a1.05 1.05 0 0 0-1-1h-4.56a1.05 1.05 0 0 1-1-1zM109.19 79a1.07 1.07 0 0 0 1.06 1.06h.43a1.06 1.06 0 0 0 1-1.06V58.3a1 1 0 0 0-1-1h-.43a1.06 1.06 0 0 0-1.06 1zM106.67 71c0 .58.33 1 .74 1s.74-.47.74-1V60.83c0-.58-.34-1-.74-1s-.74.46-.74 1zM114.26 60.83c0-.58-.33-1-.74-1s-.74.46-.74 1v4.93c0 .58.34 1 .74 1s.74-.47.74-1zM247.1 79a1.06 1.06 0 0 0 1.05 1.06h4.66a1.06 1.06 0 0 0 1.05-1.06v-.43a1 1 0 0 0-1.05-1h-4.66a1 1 0 0 0-1.05 1zM122.82 58.3a1.06 1.06 0 0 0-1-1h-.44a1 1 0 0 0-1 1v.43a1.06 1.06 0 0 1-1.06 1.06h-2.86a1 1 0 0 0-1.05 1v.43a1 1 0 0 0 1.05 1.06h2.86c.59 0 1.06.23 1.06.52s-.47.53-1.06.53h-2.86c-.59 0-1.05.33-1.05.73s.46.75 1.05.75h2.86c.59 0 1.06.24 1.06.52s-.47.53-1.06.53h-2.86a1 1 0 0 0-1.05 1v.43a1 1 0 0 0 1.05 1.05h10.37a1.06 1.06 0 0 0 1.05-1.05V67a1.06 1.06 0 0 0-1.05-1h-2.87c-.58 0-1.05-.24-1.05-.53s.47-.52 1.05-.52h2.87c.57 0 1.05-.34 1.05-.75s-.48-.73-1.05-.73h-2.87c-.58 0-1.05-.24-1.05-.53s.47-.52 1.05-.52h2.87a1.06 1.06 0 0 0 1.05-1.06v-.43a1 1 0 0 0-1.05-1h-2.87a1.06 1.06 0 0 1-1.05-1.06zM143 58.73v17.52l-.23.57a.44.44 0 0 1-.81-.21 1 1 0 0 0-1.06-.89h-1.29a1 1 0 0 1-1-1 1.06 1.06 0 0 1 1-1.07h1.29a1.05 1.05 0 0 0 1.06-1v-.43c0-.58-.24-1.06-.53-1.06s-.53-.46-.53-1V68c0-.58.24-1 .53-1s.53-.47.53-1v-.44a1 1 0 0 0-1.06-1h-1.29a1 1 0 0 1-1-1.05 1 1 0 0 1 1-1h1.29a1.05 1.05 0 0 0 1.1-1.25v-.43a1 1 0 0 0-1.06-1h-1.29a1.06 1.06 0 0 1-1-1.06v-.47a1.06 1.06 0 0 0-1.05-1h-.43a1 1 0 0 0-1.05 1v.43a1.07 1.07 0 0 1-1.12 1.06h-1.29a1 1 0 0 0-1 1v.43a1.05 1.05 0 0 0 1 1.06H135a1.06 1.06 0 0 1 1.06 1 1.06 1.06 0 0 1-1.06 1.14h-1.29a1 1 0 0 0-1 1v.44c0 .58.23 1 .52 1s.52.47.52 1v2c0 .58-.23 1-.52 1s-.52.48-.52 1.06v.43a1 1 0 0 0 1 1H135a1.07 1.07 0 0 1 1.06 1.07 1.06 1.06 0 0 1-1.06 1h-1.29a1.05 1.05 0 0 0-1 1v.43a1 1 0 0 0 1 1H135a1 1 0 0 1 1.06.9 1 1 0 0 0 1.05.9h.43a1 1 0 0 0 1.05-.9 1 1 0 0 1 1-.9h1.07a1 1 0 0 1 1.06.9c0 .48.42.7 1 .46l2.41-2.41a6 6 0 0 0 .43-2V68c0-.58.18-.62.41-.08l2 4.62a2.76 2.76 0 0 1 0 1.92l-2 4.62a.65.65 0 0 0 .64 1h.43a1.72 1.72 0 0 0 1.46-1l.74-1.7c.24-.53.62-.53.84 0l.75 1.7a1.72 1.72 0 0 0 1.46 1h.43a.64.64 0 0 0 .63-1l-2-4.62a2.76 2.76 0 0 1 0-1.92l2-4.62a5.89 5.89 0 0 0 .43-2v-.44a1 1 0 0 0-1.06-1h-6.11a1 1 0 0 1-1.05-1.05v-2.6a1 1 0 0 1 1.05-1h3.58c.57 0 .92.28.77.63s-1 1.1-1 1.68v.43a.63.63 0 0 0 1 .62l2.41-2.41a5.58 5.58 0 0 0 .44-2v-.48a1.06 1.06 0 0 0-1.06-1h-8.65a1.06 1.06 0 0 0-1.05 1zM136.25 68a1 1 0 0 1 1.05-1 1 1 0 0 1 1.05 1v2a1 1 0 0 1-1.05 1 1 1 0 0 1-1.05-1zm13.95-1a.65.65 0 0 1 .64 1l-.75 1.69c-.22.54-.6.54-.84 0l-.74-1.69a.65.65 0 0 1 .64-1zM118.89 69.48h-2.52a1 1 0 0 0-1.05 1v5.72l-.29.62c-.15.35-1 1.11-1 1.69V79a.67.67 0 0 0 1 .68l2.15-1.7a2.15 2.15 0 0 1 1.61-.89h5.41a1.06 1.06 0 0 1 1.06 1V79a1.06 1.06 0 0 0 1 1.06h.43a1.07 1.07 0 0 0 1.1-1.06v-8.47a1.06 1.06 0 0 0-1.05-1h-7.85zm0 6.11c-.57 0-1-.23-1-.52s.47-.52 1-.52h5.31c.59 0 1.06.23 1.06.52s-.47.52-1.06.52zm6.37-3c0 .29-.47.53-1.06.53h-5.31c-.57 0-1-.24-1-.53s.47-.53 1-.53h5.31c.59-.06 1.06.19 1.06.48z"/><path d="M254.71 58.3a1 1 0 0 0-1.05-1h-.43a1.05 1.05 0 0 0-1 1v.43a1.07 1.07 0 0 1-1.05 1.06h-7.2a1 1 0 0 0-1.05 1v.43a1.05 1.05 0 0 0 1.05 1.06h7.2c.57 0 1.05.23 1.05.52s-.48.53-1.05.53h-7.2a1 1 0 0 0-1.05 1.05V71a1 1 0 0 0 1.01 1h13.34c.57 0 1.05.24 1.05.53s-.48.53-1.05.53h-13.34a1 1 0 0 0-1.05 1v.44a1 1 0 0 0 1.05 1h13.34c.57 0 1.05.15 1.05.33v.33l-.29.62c-.15.35-1 1.11-1 1.69V79a.63.63 0 0 0 1 .62l2.41-2.41a5.29 5.29 0 0 0 .43-1.28c0-.18.47-.33 1.05-.33h1a1 1 0 0 0 1.05-1v-.44a1 1 0 0 0-1.05-1h-1c-.58 0-1.05-.24-1.05-.53s.14-.53.3-.53H263a1 1 0 0 0 1-1.1v-6.58a1 1 0 0 0-1-1.05h-7.19c-.58 0-1.06-.24-1.06-.53s.48-.52 1.06-.52H263a1 1 0 0 0 1-1.06v-.43a1 1 0 0 0-1.05-1h-7.19a1.07 1.07 0 0 1-1.06-1.06zm-9.29 8.12c0-.28.48-.52 1.06-.52h4.66c.57 0 1.05.24 1.05.52s-.48.53-1.05.53h-4.66c-.58.05-1.06-.24-1.06-.53zm0 2.54c0-.29.48-.53 1.06-.53h4.66c.57 0 1.05.24 1.05.53s-.48.52-1.05.52h-4.66c-.58 0-1.06-.23-1.06-.48zm16.06 0c0 .29-.47.52-1.05.52h-4.66c-.58 0-1.06-.23-1.06-.52s.48-.53 1.06-.53h4.66c.57 0 1.05.24 1.05.57zm-1.05-3.06c.58 0 1.05.24 1.05.52s-.47.53-1.05.53h-4.66c-.58 0-1.06-.24-1.06-.53s.48-.52 1.06-.52zM190.6 78.13a8.31 8.31 0 0 1-1.55 1.36 9.15 9.15 0 0 1-2.88.56h-5.71a1.05 1.05 0 0 1-1.05-1.05v-.43a1 1 0 0 1 1.05-1h5.71a10.09 10.09 0 0 0 1.38-.07 5.05 5.05 0 0 0 1.25-1.09l5-5.87a1 1 0 0 1 1.43-.06l.3.31a1.14 1.14 0 0 1 .06 1.53zM234.93 66.93a13.21 13.21 0 0 0 1.27-1.63 7.45 7.45 0 0 0 .55-2.35v-2a1 1 0 0 0-1.05-1h-13.76a1 1 0 0 0-1.05 1v.44a1 1 0 0 0 1.05 1h11.24c.57 0 1 .24 1 .53v.52l-.07.33a7.22 7.22 0 0 1-1 1.34l-11.26 12.26a1.1 1.1 0 0 0 0 1.5l.31.32a1 1 0 0 0 1.46 0l4.58-5a1 1 0 0 1 1.43 0l4.59 5a1 1 0 0 0 1.46 0l.3-.32a1.09 1.09 0 0 0 0-1.5l-4.66-5.05a1.17 1.17 0 0 1 0-1.55zM334.06 72.88c-.15-.17-.51-.69-.82-1.16a7.78 7.78 0 0 1-.56-2.35c0-.29.47-.53 1.05-.53h.44c.57 0 1.05.24 1.05.53V70.21a3.42 3.42 0 0 0 .51.8.24.24 0 0 0 .4 0 4.19 4.19 0 0 0 .37-.51 2.57 2.57 0 0 0 .19-.61v-.52c0-.29.47-.53 1.05-.53h.43c.58 0 1 .24 1 .53a12.57 12.57 0 0 1-.18 1.5 8.66 8.66 0 0 1-1.18 2c-.15.17 0 .66.42 1.1l3 3.48a1.15 1.15 0 0 1-.06 1.54l-.3.3a1 1 0 0 1-1.44 0l-2.85-3.33a.88.88 0 0 0-1.37 0l-2.87 3.33a1 1 0 0 1-1.43 0l-.3-.3a1.15 1.15 0 0 1-.06-1.54l3-3.48c.45-.43.65-.92.51-1.09zM326.16 58.3a1 1 0 0 0-1.05-1h-.44a1.06 1.06 0 0 0-1.05 1v.54a1.06 1.06 0 0 1-1.05 1h-.64a1 1 0 0 0-1.05 1v.44a1 1 0 0 0 1.05 1h.64a1 1 0 0 1 1.05 1v1.11a4.16 4.16 0 0 1-.57 1.94l-1.6 2.67a4.21 4.21 0 0 0-.57 1.93v1.48c0 .57.26.65.57.18l1.6-2.45c.32-.49.57-.41.57.17V79a1.07 1.07 0 0 0 1.05 1.06h.44a1.06 1.06 0 0 0 1.05-1.06v-8.73c0-.58.26-.66.57-.17l1.6 2.45c.32.47.57.39.57-.18v-1.48a4.09 4.09 0 0 0-.57-1.93l-1.6-2.44a4.28 4.28 0 0 1-.57-1.94v-1.11a1.06 1.06 0 0 1 1-1h.65a1 1 0 0 0 1-1v-.44a1 1 0 0 0-1-1h-.65a1.06 1.06 0 0 1-1-1zM341.36 62.42c.35 0 .64-.47.64-1v-.44a1.06 1.06 0 0 0-1.05-1h-2.65a1.07 1.07 0 0 1-1.06-1v-.68a1 1 0 0 0-1.05-1h-.43a1 1 0 0 0-1 1v.54a1.07 1.07 0 0 1-1.06 1H331a1 1 0 0 0-1.05 1v.44c0 .57.28 1 .63 1s.63.47.63 1v1.22s-.13.28-.28.63-1 1.1-1 1.68v.44a.63.63 0 0 0 1 .62l2.41-2.41a6.08 6.08 0 0 0 .43-2v-.17a1 1 0 0 1 1.05-1h2.34a1 1 0 0 1 1.05 1v.17a5.85 5.85 0 0 0 .44 2l2.4 2.41a.63.63 0 0 0 1-.62V67a1.54 1.54 0 0 0-.64-1.33c-.34-.16-.63-1-.63-1v-1.2c-.05-.58.22-1.05.58-1.05z"/><path class="cls-1" d="M135 .88h1.3V3.8h-2.59V2.64h.64v.58h1.3V1.46H135V.88m3 .58h1.3v1.76H138zm-.65 2.34h2.59V.88h-2.59zm5.55-1.75h-1.29V.88h-.65V3.8h.65V2.64h1.29V3.8h.66V.88h-.66v1.17m2.31-.59h1.3v1.76h-1.3zm-.64 2.34h2.59V.88h-2.59zM151 2.64h1.29v.58H151zm0-1.18h.64v.59H151zm1.94.59h-.65V.88h-2V3.8H153zm3 1.17h-1.3V.88H154V3.8h2.59V.88h-.65v2.34m7.21.58v-.58h-.65V1.46h.65V.88h-1.94v.58h.64v1.76h-.64v.58h1.94m1.66-1.75h.65v-.59h-.65V.88h-.65V3.8h.65V2.05m1.3 1.75h.64V.88h-.64v1.17h-.65v.59h.65zm4.25 0v-.58h-2v-.58h2v-.59h-2v-.59h2V.88h-2.59V3.8h2.59m1-2.92v1.76h1.95v.58h-1.95v.58H174V2.05h-2v-.59h2V.88h-2.59m-13.81 0v1.76h1.94v.58h-1.94v.58h2.6V2.05h-2v-.59h2V.88h-2.6m17.4 0v1.76h1.94v.58H175v.58h2.59V2.05h-1.95v-.59h1.95V.88H175"/><path class="cls-2" d="M220.93 4.69h9v8.38h-9zm0 13.72h9v15.68h-9zM195 12.57v9h12.58v3.61h-16.19V9H204v3.61h-9m21.57 0H213V0h-30.56v34.12h34.13zm-47.66-4.97h9v9h-9zm0 17.46h9v9h-9zm-26.51-8.48H155v8.48h-12.6zm-9 17.47H164V7.64h-30.59zm-5.88 0H106v-9h12.57V0h9zm0 0H106v-9h12.57V0h9z"/></g></g></svg>